<svg xmlns="http://www.w3.org/2000/svg" viewBox="0 0 398 77.87988"><defs><style>.cls-1{fill:#fff;}</style></defs><title>logo_Open Matrix</title><g id="OpenMatrix_White" data-name="OpenMatrix White"><path class="cls-1" d="M380.41309,28.54248v6.668h-1.72461v-6.668h-2.169V27.23682h6.03906v1.30566Zm10.5625,6.668-.72266-6.06152-1.7959,6.06152h-1.56152l-1.81934-6.03809-.67578,6.03809h-1.70215l1.166-7.97363h2.168l1.67871,5.99218,1.58594-5.99218h2.1914l1.166,7.97363Z"/><path class="cls-1" d="M25.58421,55.21092c10.85268,0,19.17884-8.73531,19.17884-19.588S36.43689,15.965,25.58421,15.965,6.47354,24.77023,6.47354,35.62292s8.258,19.588,19.11067,19.588m0-43.75c13.37746,0,23.68464,10.78452,23.68464,24.162,0,13.30927-10.30718,24.092-23.68464,24.092-13.30929,0-23.61471-10.78276-23.61471-24.092,0-13.37746,10.30542-24.162,23.61471-24.162"/><path class="cls-1" d="M70.91007,31.04948c-6.485,0-12.01191,4.36766-12.01191,12.21649,0,7.85058,6.2787,11.87729,12.01191,11.87729,6.61967,0,11.73917-4.574,11.73917-11.87729,0-7.097-5.1195-12.21649-11.73917-12.21649M54.32419,27.15915h4.574v5.52863c2.38839-4.0267,7.37149-6.21053,12.01191-6.21053,9.078,0,16.31138,6.68787,16.31138,16.78872,0,10.10261-7.23337,16.44951-16.31138,16.44951-4.64042,0-9.62352-1.84288-12.01191-5.86958V74.4585h-4.574Z"/><path class="cls-1" d="M118.57117,40.87791c-.88648-6.07415-5.11775-9.89627-10.98732-9.89627a11.16211,11.16211,0,0,0-11.4664,9.89627ZM91.47529,42.99355c0-10.10084,7.03055-16.51595,16.10856-16.51595s15.62948,6.41511,15.62948,16.516c0,.68366,0,1.50193-.06819,2.11565H96.11745a11.63031,11.63031,0,0,0,21.43086,4.574c1.36556.34095,3.14024.6819,4.57223,1.02285a15.55638,15.55638,0,0,1-14.53669,9.00982c-9.078,0-16.10856-6.61968-16.10856-16.72228"/><path class="cls-1" d="M133.59761,59.03322h-4.574V27.1588h4.574v5.25587c1.97924-4.16308,6.89417-5.93777,10.57993-5.93777,7.7789,0,12.35287,5.32406,12.28468,13.99118V59.03322h-4.574V40.46808c0-5.86959-2.79754-9.48715-7.71071-9.48715-5.05132,0-10.57993,2.86747-10.57993,10.64813Z"/><polygon class="cls-1" points="204.035 11.905 213.7 11.905 219.458 59.132 207.668 59.132 204.79 33.703 195.261 53.649 186.624 53.649 177.028 33.703 174.08 59.132 162.292 59.132 168.118 11.905 177.645 11.905 190.944 40.627 204.035 11.905"/><path class="cls-1" d="M241.02685,49.81011a6.64853,6.64853,0,1,0-6.64941-6.64765,6.69934,6.69934,0,0,0,6.64941,6.64765m6.64765-22.61984h10.89989V59.1329H247.6745V55.49959a10.66578,10.66578,0,0,1-8.842,4.25051c-7.88381,0-15.55955-6.30669-15.55955-16.65758,0-10.34914,7.67574-16.724,15.55955-16.724a11.03273,11.03273,0,0,1,8.842,4.24876Z"/><polygon class="cls-1" points="280.151 27.19 286.868 27.19 286.868 35.21 280.151 35.21 280.151 59.133 269.389 59.133 269.389 35.21 263.563 35.21 263.563 27.19 269.389 27.19 269.389 15.743 280.151 15.743 280.151 27.19"/><path class="cls-1" d="M302.70994,59.03322H291.85725V27.227h10.30539v7.85059c1.64009-6.0759,5.93952-8.66887,10.03444-8.66887a10.58,10.58,0,0,1,4.71035.88646l-2.66292,10.239a13.38882,13.38882,0,0,0-4.91493-.82c-4.09492,0-6.61964,2.322-6.61964,11.87729Z"/><path class="cls-1" d="M321.89135,59.13656h10.8527V27.33032h-10.8527Zm5.39228-48.52677a6.24031,6.24031,0,0,1,6.48325,6.14234,6.33882,6.33882,0,0,1-6.48325,6.21054,6.445,6.445,0,0,1-6.55326-6.21054,6.34391,6.34391,0,0,1,6.55326-6.14234"/><polygon class="cls-1" points="349.521 41.937 338.943 27.33 351.434 27.33 355.527 33.338 359.419 27.33 371.84 27.33 361.328 41.937 373.751 59.137 361.328 59.137 355.391 50.401 349.453 59.137 336.964 59.137 349.521 41.937"/></g></svg>