<svg id="Color" xmlns="http://www.w3.org/2000/svg" viewBox="0 0 398 77.87988">
  <defs>
    <style>
      .cls-1 {
        fill: #ffcc03;
      }

      .cls-2 {
        fill: #333;
      }
    </style>
  </defs>
  <title>logo_OpenMatrix</title>
  <g id="OpenMatrix_White" data-name="OpenMatrix White">
    <path class="cls-1" d="M380.41309,25.03516v6.668h-1.72461v-6.668h-2.169V23.72949h6.03906v1.30567Zm10.5625,6.668-.72266-6.06152-1.7959,6.06152h-1.56152L385.07617,25.665l-.67578,6.03808h-1.70215l1.166-7.97363h2.168l1.67871,5.99219,1.58594-5.99219h2.1914l1.166,7.97363Z"/>
    <path class="cls-2" d="M25.58421,51.70358c10.85268,0,19.17884-8.73531,19.17884-19.588S36.43689,12.45764,25.58421,12.45764,6.47354,21.26289,6.47354,32.11557s8.258,19.588,19.11067,19.588m0-43.75c13.37746,0,23.68464,10.78452,23.68464,24.162,0,13.30928-10.30718,24.092-23.68464,24.092-13.30929,0-23.61471-10.78276-23.61471-24.092,0-13.37745,10.30542-24.162,23.61471-24.162"/>
    <path class="cls-2" d="M70.91007,27.54214c-6.485,0-12.01191,4.36765-12.01191,12.21649,0,7.85058,6.2787,11.87729,12.01191,11.87729,6.61967,0,11.73917-4.574,11.73917-11.87729,0-7.097-5.1195-12.21649-11.73917-12.21649M54.32419,23.6518h4.574v5.52864c2.38839-4.02671,7.37149-6.21053,12.01191-6.21053,9.078,0,16.31138,6.68786,16.31138,16.78872,0,10.1026-7.23337,16.44951-16.31138,16.44951-4.64042,0-9.62352-1.84288-12.01191-5.86959v20.6126h-4.574Z"/>
    <path class="cls-2" d="M118.57117,37.37057c-.88648-6.07415-5.11775-9.89628-10.98732-9.89628a11.16212,11.16212,0,0,0-11.4664,9.89628ZM91.47529,39.48621c0-10.10085,7.03055-16.516,16.10856-16.516s15.62948,6.41511,15.62948,16.516c0,.68366,0,1.50193-.06819,2.11565H96.11745a11.63031,11.63031,0,0,0,21.43086,4.574c1.36556.34095,3.14024.6819,4.57223,1.02285a15.55638,15.55638,0,0,1-14.53669,9.00982c-9.078,0-16.10856-6.61968-16.10856-16.72228"/>
    <path class="cls-2" d="M133.59761,55.52588h-4.574V23.65146h4.574v5.25586c1.97924-4.16307,6.89417-5.93776,10.57993-5.93776,7.7789,0,12.35287,5.32406,12.28468,13.99118V55.52588h-4.574V36.96074c0-5.86959-2.79754-9.48715-7.71071-9.48715-5.05132,0-10.57993,2.86747-10.57993,10.64813Z"/>
    <polygon class="cls-1" points="204.035 8.397 213.7 8.397 219.458 55.625 207.668 55.625 204.79 30.195 195.261 50.142 186.624 50.142 177.028 30.195 174.08 55.625 162.292 55.625 168.118 8.397 177.645 8.397 190.944 37.119 204.035 8.397"/>
    <path class="cls-1" d="M241.02685,46.30276a6.64852,6.64852,0,1,0-6.64941-6.64765,6.69933,6.69933,0,0,0,6.64941,6.64765m6.64765-22.61983h10.89989V55.62555H247.6745v-3.6333a10.66578,10.66578,0,0,1-8.842,4.25051c-7.88381,0-15.55955-6.30669-15.55955-16.65759,0-10.34913,7.67574-16.724,15.55955-16.724a11.03273,11.03273,0,0,1,8.842,4.24876Z"/>
    <polygon class="cls-1" points="280.151 23.683 286.868 23.683 286.868 31.703 280.151 31.703 280.151 55.626 269.389 55.626 269.389 31.703 263.563 31.703 263.563 23.683 269.389 23.683 269.389 12.236 280.151 12.236 280.151 23.683"/>
    <path class="cls-1" d="M302.70994,55.52588H291.85725V23.71965h10.30539v7.85058c1.64009-6.07589,5.93952-8.66886,10.03444-8.66886a10.58,10.58,0,0,1,4.71035.88646l-2.66292,10.239a13.38882,13.38882,0,0,0-4.91493-.82c-4.09492,0-6.61964,2.322-6.61964,11.87729Z"/>
    <path class="cls-1" d="M321.89135,55.62922h10.8527V23.823h-10.8527Zm5.39228-48.52677a6.24031,6.24031,0,0,1,6.48325,6.14234,6.33882,6.33882,0,0,1-6.48325,6.21053,6.44494,6.44494,0,0,1-6.55326-6.21053,6.34391,6.34391,0,0,1,6.55326-6.14234"/>
    <polygon class="cls-1" points="349.521 38.43 338.943 23.823 351.434 23.823 355.527 29.831 359.419 23.823 371.84 23.823 361.328 38.43 373.751 55.629 361.328 55.629 355.391 46.894 349.453 55.629 336.964 55.629 349.521 38.43"/>
  </g>
</svg>
